<svg width="40mm" height="40mm" version="1.1" viewBox="0 0 40 40" xmlns="http://www.w3.org/2000/svg">
<style>
 path { fill: #000; }
 @media (prefers-color-scheme: dark) { path { fill: #fff; } }
</style>
<path d="m9.3903 19.428a1.7176 1.7176 0 0 0-1.7178 1.7172 1.7176 1.7176 0 0 0 1.7178 1.7178h13.779c3.1826 0 5.7257 2.5433 5.7257 5.7257s-2.5433 5.7252-5.7257 5.7253l-8.6284 0.0026a1.7176 1.7176 0 0 0-5.16e-4 0v-2.2489l-6.8704 3.9666 6.8704 3.9666v-2.2494a1.7176 1.7176 0 0 0 5.16e-4 0l8.6284-0.0021c5.039-7.5e-5 9.1607-4.1217 9.1607-9.1607 0-5.039-4.1217-9.1607-9.1607-9.1607z" stroke-width="1.1451"/>
<path d="m25.46 4.5697e-5v2.2494a1.7176 1.7176 0 0 0-5.17e-4 0h-6.9086c-3.2701-1.71e-5 -6.2978 1.7481-7.9328 4.5801-1.6351 2.8319-1.6351 6.3292 0 9.1611a1.7176 1.7176 0 0 0 2.3461 0.62838 1.7176 1.7176 0 0 0 0.62838-2.3461c-1.0241-1.7739-1.0241-3.9519 0-5.7257 1.0241-1.7739 2.91-2.8629 4.9584-2.8629h6.9086a1.7176 1.7176 0 0 0 5.17e-4 0v2.2494l6.8704-3.9672-6.8704-3.9666z" stroke-width="1.1451"/>
</svg>
