<svg width="98.145mm" height="38.508mm" version="1.1" viewBox="0 0 98.145 38.508" xmlns="http://www.w3.org/2000/svg">
 <g transform="translate(-9.1492 -2.5339)" stroke-width="0" style="font-variation-settings:'wght' 600" aria-label="plitey">
  <path d="m36.006 41.041q-0.7112 0-1.0964-0.38523-0.38523-0.38523-0.38523-1.1261v-17.187q0-0.74083 0.38523-1.1261t1.0668-0.38523q0.7112 0 1.0964 0.38523t0.38523 1.1261v2.5781l-0.32597-0.6223q0.47413-1.6002 1.8669-2.5485 1.3928-0.9779 3.2893-0.9779 1.9262 0 3.3486 0.91863 1.452 0.91863 2.2225 2.5781 0.8001 1.6595 0.8001 4.0005 0 2.2818-0.8001 4.0005-0.77047 1.6891-2.1929 2.6077-1.4224 0.889-3.3782 0.889-1.8669 0-3.2597-0.94827-1.3928-0.94826-1.8669-2.5188h0.3556v7.2305q0 0.74083-0.41487 1.1261-0.38523 0.38523-1.0964 0.38523zm5.5414-7.5861q1.2446 0 2.1632-0.59267 0.91863-0.59267 1.4224-1.7484 0.50377-1.1557 0.50377-2.8448 0-2.5485-1.1261-3.8523-1.0964-1.3039-2.9633-1.3039-1.215 0-2.1632 0.59267-0.91863 0.56303-1.4224 1.7187t-0.50377 2.8448q0 2.5188 1.1261 3.8523t2.9633 1.3335z"/>
  <path d="m56.69 35.766q-2.3114 0-3.4967-1.3335-1.1557-1.3631-1.1557-3.9116v-14.609q0-0.74083 0.38523-1.1261t1.0964-0.38523 1.0964 0.38523q0.41487 0.38523 0.41487 1.1261v14.431q0 1.4817 0.59267 2.2225 0.6223 0.7112 1.778 0.7112 0.2667 0 0.47413 0 0.20743-0.02963 0.41487-0.05927 0.3556-0.02963 0.50377 0.20743 0.14817 0.20743 0.14817 0.889 0 0.6223-0.2667 0.9779-0.2667 0.32597-0.85937 0.41487-0.2667 0.02963-0.56303 0.02963-0.29633 0.02963-0.56303 0.02963z"/>
  <path d="m62.587 35.677q-0.7112 0-1.0964-0.41487-0.38523-0.4445-0.38523-1.215v-11.557q0-0.77047 0.38523-1.1853t1.0964-0.41487 1.0964 0.41487q0.41487 0.41487 0.41487 1.1853v11.557q0 0.77047-0.38523 1.215-0.38523 0.41487-1.1261 0.41487zm0-17.869q-0.889 0-1.3928-0.4445-0.47413-0.4445-0.47413-1.2446 0-0.82973 0.47413-1.2446 0.50377-0.4445 1.3928-0.4445t1.3631 0.4445q0.50377 0.41487 0.50377 1.2446 0 0.8001-0.50377 1.2446-0.47413 0.4445-1.3631 0.4445z"/>
  <path d="m74.47 35.766q-1.778 0-2.993-0.6223t-1.8076-1.8373-0.59267-2.9633v-6.9935h-1.778q-0.59267 0-0.91863-0.29633-0.32597-0.32597-0.32597-0.85937 0-0.56303 0.32597-0.85937t0.91863-0.29633h1.778v-3.0522q0-0.74083 0.38523-1.1261 0.41487-0.38523 1.1261-0.38523t1.0964 0.38523 0.38523 1.1261v3.0522h3.4671q0.59267 0 0.91863 0.29633 0.32597 0.29633 0.32597 0.85937 0 0.5334-0.32597 0.85937-0.32597 0.29633-0.91863 0.29633h-3.4671v6.7564q0 1.5706 0.65193 2.3707 0.68157 0.8001 2.1929 0.8001 0.5334 0 0.91863-0.0889 0.41487-0.11853 0.68157-0.14817 0.32597 0 0.5334 0.23707 0.20743 0.20743 0.20743 0.82973 0 0.4445-0.1778 0.82973-0.14817 0.38523-0.56303 0.50377-0.3556 0.11853-0.9779 0.20743-0.59267 0.11853-1.0668 0.11853z"/>
  <path d="m85.76 35.766q-2.3707 0-4.0894-0.889-1.6891-0.91863-2.6374-2.5781-0.91863-1.6891-0.91863-4.0005 0-2.2521 0.91863-3.9412t2.5188-2.6374q1.6002-0.94826 3.6449-0.94826 1.5113 0 2.6966 0.50377 1.1853 0.47413 2.0151 1.4224 0.85937 0.91863 1.2742 2.2521 0.4445 1.3335 0.4445 2.993 0 0.50377-0.29633 0.77047-0.29633 0.23707-0.889 0.23707h-9.9568v-1.8373h9.1271l-0.50377 0.41487q0-1.4817-0.4445-2.5188-0.41487-1.0372-1.2742-1.5706-0.82973-0.56303-2.0743-0.56303-1.3928 0-2.3707 0.65193-0.94827 0.65193-1.452 1.8076t-0.50377 2.6966v0.1778q0 2.6077 1.215 3.9412 1.2446 1.3039 3.5856 1.3039 0.889 0 1.8669-0.23707 1.0075-0.23707 1.8965-0.8001 0.50377-0.29633 0.889-0.2667 0.41487 0.02963 0.65193 0.2667 0.2667 0.23707 0.32597 0.59267t-0.11853 0.74083q-0.1778 0.3556-0.6223 0.65193-1.0075 0.68157-2.341 1.0372-1.3335 0.32597-2.5781 0.32597z"/>
  <path d="m98.084 41.041q-0.5334 0-0.889-0.29633-0.32597-0.2667-0.38523-0.74083-0.02963-0.4445 0.1778-0.9779l2.0151-4.5339v1.2742l-5.5414-12.89q-0.20743-0.5334-0.14817-1.0075 0.05927-0.47413 0.4445-0.74083 0.38523-0.29633 1.0372-0.29633 0.56303 0 0.889 0.2667t0.59267 0.91863l4.4746 11.053h-0.82973l4.5339-11.053q0.2667-0.68157 0.6223-0.91863 0.3556-0.2667 0.9779-0.2667 0.5334 0 0.82974 0.29633 0.32596 0.2667 0.38523 0.74083 0.0889 0.4445-0.14817 0.9779l-7.4083 17.039q-0.29633 0.68157-0.68157 0.91863-0.3556 0.23707-0.94826 0.23707z"/>
  <path transform="rotate(180 11.575 42.001)" d="m12.497 64.502a1.5 1.5 0 0 0 1.5002-1.5002 1.5 1.5 0 0 0-1.5002-1.4996h-12.033c-2.7793 0-5.0002-2.221-5.0002-5.0002s2.221-4.9997 5.0002-4.9997l7.5349-0.002067a1.5 1.5 0 0 0 5.167e-4 0v1.9642l6.0002-3.4644-6.0002-3.4639v1.9637a1.5 1.5 0 0 0-5.167e-4 0l-7.5349 0.002068c-4.4005 6.5e-5 -8 3.5995-8 8s3.5995 8 8 8h12.033z"/>
  <path transform="translate(16.686 -44.002)" d="m7.9998 46.536v1.9642h-6.0332c-2.8557-1.5e-5 -5.4999 1.5271-6.9277 4.0003-1.4279 2.4731-1.4279 5.5269 0 8a1.5 1.5 0 0 0 2.0485 0.5488 1.5 1.5 0 0 0 0.5488-2.049c-0.89437-1.5491-0.89437-3.4511 0-5.0002 0.89437-1.5491 2.5417-2.4996 4.3305-2.4996h6.0332v1.9637l6.0002-3.4639-6.0002-3.4644z"/>
 </g>
</svg>
