<svg width="40mm" height="40mm" version="1.1" viewBox="0 0 40 40" xmlns="http://www.w3.org/2000/svg">
 <g transform="matrix(1.1451 0 0 1.1451 -2.6156 -2.9019)">
  <path transform="rotate(180 11.491 42.001)" d="m12.498 64.502a1.5 1.5 0 0 0 1.5001-1.4996 1.5 1.5 0 0 0-1.5001-1.5001h-12.033c-2.7793 0-5.0002-2.221-5.0002-5.0002s2.221-4.9997 5.0002-4.9998l7.5351-0.002256a1.5 1.5 0 0 0 4.513e-4 0v1.964l5.9998-3.464-5.9998-3.464v1.9644a1.5 1.5 0 0 0-4.513e-4 0l-7.5351 0.001805c-4.4005 6.5e-5 -8.0003 3.5994-8.0003 7.9999s3.5998 7.9999 8.0003 7.9999h12.033z"/>
  <path transform="translate(16.518 -44.002)" d="m8 46.536v1.9644a1.5 1.5 0 0 0-4.512e-4 0h-6.0332c-2.8557-1.5e-5 -5.4998 1.5266-6.9276 3.9997-1.4279 2.4731-1.4279 5.5272 0 8.0003a1.5 1.5 0 0 0 2.0488 0.54876 1.5 1.5 0 0 0 0.54876-2.0488c-0.89437-1.5491-0.89437-3.4511 0-5.0002 0.89437-1.5491 2.5413-2.5001 4.3301-2.5001h6.0332a1.5 1.5 0 0 0 4.512e-4 0v1.9644l5.9998-3.4645-5.9998-3.464z"/>
 </g>
</svg>
